<svg width="12" height="15" viewBox="0 0 12 15" fill="none" xmlns="http://www.w3.org/2000/svg">
<path d="M4.23529 12C3.84706 12 3.51471 11.8531 3.23824 11.5594C2.96176 11.2656 2.82353 10.9125 2.82353 10.5V1.5C2.82353 1.0875 2.96176 0.734375 3.23824 0.440625C3.51471 0.146875 3.84706 0 4.23529 0H10.5882C10.9765 0 11.3088 0.146875 11.5853 0.440625C11.8618 0.734375 12 1.0875 12 1.5V10.5C12 10.9125 11.8618 11.2656 11.5853 11.5594C11.3088 11.8531 10.9765 12 10.5882 12H4.23529ZM4.23529 10.5H10.5882V1.5H4.23529V10.5ZM1.41176 15C1.02353 15 0.691177 14.8531 0.414706 14.5594C0.138235 14.2656 0 13.9125 0 13.5V3H1.41176V13.5H9.17647V15H1.41176Z" fill="white"/>
</svg>
