<?xml version="1.0" encoding="UTF-8"?><svg height='36' id="Layer_1" xmlns="http://www.w3.org/2000/svg" viewBox="0 0 321.75 510"><defs><style>.cls-1{fill:#1616b4;}.cls-2{fill:#f0cdc2;}.cls-3{fill:#88aaf1;}.cls-4{fill:#b8faf6;}.cls-5{fill:#c9b3f5;}</style></defs><polygon class="cls-2" points="160.62 508.59 160.62 381.26 3.14 289.42 160.62 508.59"/><path class="cls-1" d="m160.62,510c-.56,0-.85-.28-1.13-.56L2.02,290.27c-.28-.56-.28-1.41,0-1.69.56-.56,1.13-.56,1.69-.28l157.47,92.12c.56.28.56.85.56,1.13v127.05c0,.56-.28,1.13-.85,1.41h-.28ZM8.21,293.93l150.99,210.15v-121.98L8.21,293.93Z"/><polygon class="cls-5" points="161.18 508.59 161.18 381.26 318.65 289.42 161.18 508.59"/><path class="cls-1" d="m161.18,510h-.56c-.56-.28-.85-.85-.85-1.41v-127.33c0-.56.28-.85.56-1.13l157.47-92.12c.56-.28,1.41-.28,1.69.28.56.56.56,1.13,0,1.69l-157.47,219.17c0,.56-.56.85-.85.85Zm1.41-127.89v121.98l150.99-210.44-150.99,88.46Z"/><polygon class="cls-3" points="160.62 349.71 160.62 187.45 1.45 258.72 160.62 349.71"/><path class="cls-1" d="m160.62,351.12l-.56-.28L.89,259.84c-.56-.28-.85-.85-.85-1.41s.28-1.13.85-1.13l159.16-71.27c.56-.28.85-.28,1.41,0,.28.28.56.56.56,1.13v162.26c0,.56-.28.85-.56,1.13l-.85.56ZM4.55,258.72l154.66,88.74v-157.76L4.55,258.72Z"/><polygon class="cls-5" points="161.18 349.71 161.18 187.45 320.34 258.72 161.18 349.71"/><path class="cls-1" d="m161.18,351.12l-.85-.28c-.56-.28-.56-.85-.56-1.13v-162.26c0-.56.28-.85.56-1.13.28-.28.85-.28,1.41,0l159.16,71.27c.56.28.85.56.85,1.13s-.28,1.13-.85,1.41l-159.16,90.71-.56.28Zm1.41-161.42v157.76l154.66-88.46-154.66-69.3Z"/><polygon class="cls-2" points="1.45 258.72 160.62 1.52 160.62 187.45 1.45 258.72"/><path class="cls-1" d="m1.45,260.13c-.28,0-.85-.28-1.13-.56-.28-.56-.56-1.13,0-1.69L159.49.67c.28-.56.85-.85,1.69-.56.56.28.85.85.85,1.41v185.93c0,.56-.28,1.13-.85,1.41L2.02,259.84l-.56.28ZM159.21,6.59L5.11,255.62l154.09-69.02V6.59Z"/><polygon class="cls-4" points="320.34 258.72 161.18 1.52 161.18 187.45 320.34 258.72"/><path class="cls-1" d="m320.34,260.13h-.56l-159.16-71.55c-.56-.28-.85-.85-.85-1.41V1.52c0-.56.28-1.13,1.13-1.41.56-.28,1.13,0,1.69.56l158.88,257.2c.28.56.28,1.13,0,1.69-.28.28-.85.56-1.13.56Zm-157.76-73.53l154.09,69.02L162.59,6.59v180.01Z"/></svg>